HIERARCHY
ROOT root
{
	OFFSET	0	13.1	24.9
	CHANNELS 6  Xposition Yposition Zposition Xrotation Yrotation Zrotation
	JOINT spine_1
	{
		OFFSET	0	9.99999	0
		CHANNELS 3  Xrotation Yrotation Zrotation
		JOINT spine_2
		{
			OFFSET	0	112	-10
			CHANNELS 3  Xrotation Yrotation Zrotation
			JOINT spine_3
			{
				OFFSET	0	206.5	19.3
				CHANNELS 3  Xrotation Yrotation Zrotation
				JOINT spine_4
				{
					OFFSET	0	110.4	14.6
					CHANNELS 3  Xrotation Yrotation Zrotation
					JOINT neck_1
					{
						OFFSET	0	71.8	-50.3
						CHANNELS 3  Xrotation Yrotation Zrotation
						JOINT neck_2
						{
							OFFSET	0	86.2	-25.8
							CHANNELS 3  Xrotation Yrotation Zrotation
							JOINT head_ee
							{
								OFFSET	0	179.8	-8.7
								CHANNELS 3  Xrotation Yrotation Zrotation
								End Site
								{
									OFFSET	1	0	0
								}
							}
						}
					}
					JOINT left_clavicle
					{
						OFFSET	-43.2	22.4	-70.8
						CHANNELS 3  Xrotation Yrotation Zrotation
						JOINT left_shoulder
						{
							OFFSET	-93.9	-5.79999	48.7
							CHANNELS 3  Xrotation Yrotation Zrotation
							JOINT left_elbow
							{
								OFFSET	-291.4	-30.8	15.2
								CHANNELS 3  Xrotation Yrotation Zrotation
								JOINT left_lowarm_twist
								{
									OFFSET	-110.7	-3.89999	13.6
									CHANNELS 3  Xrotation Yrotation Zrotation
									JOINT left_hand
									{
										OFFSET	-110.7	-3.89999	13.6
										CHANNELS 3  Xrotation Yrotation Zrotation
										JOINT left_ee
										{
											OFFSET	-80.8	-5.10001	12.1
											CHANNELS 3  Xrotation Yrotation Zrotation
											End Site
											{
												OFFSET	1	0	0
											}
										}
									}
								}
							}
						}
					}
					JOINT right_clavicle
					{
						OFFSET	43.2	22.4	-70.8
						CHANNELS 3  Xrotation Yrotation Zrotation
						JOINT right_shoulder
						{
							OFFSET	93.9	-5.79999	48.7
							CHANNELS 3  Xrotation Yrotation Zrotation
							JOINT right_elbow
							{
								OFFSET	291.4	-30.8	15.2
								CHANNELS 3  Xrotation Yrotation Zrotation
								JOINT right_lowarm_twist
								{
									OFFSET	110.7	-3.89999	13.6
									CHANNELS 3  Xrotation Yrotation Zrotation
									JOINT right_hand
									{
										OFFSET	110.7	-3.89999	13.6
										CHANNELS 3  Xrotation Yrotation Zrotation
										JOINT right_ee
										{
											OFFSET	80.8	-5.10001	12.1
											CHANNELS 3  Xrotation Yrotation Zrotation
											End Site
											{
												OFFSET	1	0	0
											}
										}
									}
								}
							}
						}
					}
				}
			}
		}
	}
	JOINT left_hip
	{
		OFFSET	-82.8	-127.5	0.300001
		CHANNELS 3  Xrotation Yrotation Zrotation
		JOINT left_knee
		{
			OFFSET	-28.2	-396.7	2.2
			CHANNELS 3  Xrotation Yrotation Zrotation
			JOINT left_ankle
			{
				OFFSET	-11.7	-411.3	35.4
				CHANNELS 3  Xrotation Yrotation Zrotation
				JOINT left_toes
				{
					OFFSET	0	-60	-88.6
					CHANNELS 3  Xrotation Yrotation Zrotation
					JOINT left_foot_ee
					{
						OFFSET	-22.5	-16.5	-42.2
						CHANNELS 3  Xrotation Yrotation Zrotation
						End Site
						{
							OFFSET	1	0	0
						}
					}
				}
			}
		}
	}
	JOINT right_hip
	{
		OFFSET	82.8	-127.5	0.300001
		CHANNELS 3  Xrotation Yrotation Zrotation
		JOINT right_knee
		{
			OFFSET	28.2	-396.7	2.2
			CHANNELS 3  Xrotation Yrotation Zrotation
			JOINT right_ankle
			{
				OFFSET	11.7	-411.3	35.4
				CHANNELS 3  Xrotation Yrotation Zrotation
				JOINT right_toes
				{
					OFFSET	0	-60	-88.6
					CHANNELS 3  Xrotation Yrotation Zrotation
					JOINT right_foot_ee
					{
						OFFSET	22.5	-16.5	-42.2
						CHANNELS 3  Xrotation Yrotation Zrotation
						End Site
						{
							OFFSET	1	0	0
						}
					}
				}
			}
		}
	}
}
MOTION
Frames: 11
Frame Time: 0.02
3194.51 742.259 -618.71 156.406 -68.3357 151.349 -2.40427 0.866412 2.26168 -2.40171 0.720779 2.31219 -2.36849 0.119136 2.41894 -2.37631 0.499559 2.36982 -10.4423 6.05504 -0.0213516 -10.4896 11.4326 1.53603 -0.0 0.0 -0.0 -0.459757 17.4273 1.33523 -19.7613 -20.5381 69.0955 0.494338 -13.76 0.059647 -78.9474 -7.68815 5.29268 2.47515 -19.4555 8.17853 -0.0 0.0 -0.0 6.48172 22.938 -11.392 6.40511 13.8893 -62.0376 3.1173 57.0616 -1.69502 -1.16998 0.0426899 -0.143309 2.31084 5.0734 -13.5519 0.0 0.0 0.0 -2.88894 22.5406 1.32034 -24.8572 0.206453 3.77915 1.11041 -8.92899 -0.169736 -39.5272 0.0 0.0 -0.0 0.0 -0.0 2.21349 9.61622 0.978606 -2.47121 -0.0938322 -0.367612 -6.17742 13.4914 -0.988244 22.8999 -0.0 -0.0 0.0 0.0 0.0 
3207.98 740.802 -621.055 157.522 -68.3361 151.93 -2.21929 0.841776 2.49532 -2.21608 0.681339 2.54379 -2.18117 0.0315479 2.63321 -2.19056 0.446876 2.59523 -10.7371 5.42341 0.817562 -10.7727 9.69594 2.20984 -0.0 0.0 -0.0 -0.787497 22.5842 1.52095 -20.1036 -22.0586 67.2059 0.531523 -14.7514 0.068804 -79.8548 -7.80342 5.28167 2.75775 -20.2097 9.70292 -0.0 0.0 -0.0 6.25082 22.7535 -10.9051 6.37069 14.7039 -62.3433 3.21707 57.8791 -1.77914 0.141997 -0.00498167 0.0174506 1.99724 6.70286 -10.6965 0.0 0.0 0.0 -1.03236 24.651 0.958229 -27.1384 0.142993 4.12345 6.08236 -8.70064 -0.914723 -38.7446 0.0 0.0 -0.0 0.0 -0.0 0.0356302 9.783 2.41491 2.08498 0.0914573 0.306846 -8.89492 20.6209 -1.51831 22.5174 -0.0 -0.0 0.0 0.0 0.0 
3219.66 741.327 -615.881 157.962 -67.684 152.735 -2.09684 0.835291 2.6573 -2.09316 0.664571 2.70502 -2.05674 -0.0185271 2.78534 -2.06731 0.421429 2.75336 -8.13703 5.53116 0.567308 -8.14821 9.93111 1.77887 -0.0 0.0 -0.0 -0.826515 23.2395 1.55418 -20.4186 -22.9995 66.1608 0.450386 -12.5774 0.0496334 -79.0698 -7.70371 5.2913 2.65111 -18.918 9.61585 -0.0 0.0 -0.0 6.33144 25.2036 -10.8455 5.29072 15.4911 -62.7241 3.23074 57.9883 -1.79072 -0.145304 0.00514241 -0.0178443 1.53803 8.70253 -6.70378 0.0 0.0 0.0 0.096775 21.9175 -0.180185 -28.3937 0.102232 4.31179 16.5652 -6.42217 -2.36455 -39.6066 0.0 0.0 -0.0 0.0 -0.0 -1.45529 6.86916 1.27223 3.24705 0.147268 0.476394 -10.84 21.2205 -1.86682 25.1813 -0.0 -0.0 0.0 0.0 0.0 
3227.4 741.244 -612.967 157.673 -67.9828 152.87 -1.92404 0.534915 2.61151 -1.92032 0.367713 2.64023 -1.89917 -0.28348 2.65059 -1.90895 0.138536 2.6621 -8.30294 4.93779 0.0655351 -8.31392 9.1828 1.16396 -0.0 0.0 -0.0 -0.928629 23.4028 1.43613 -20.9447 -24.1736 66.1577 0.45306 -12.6496 0.0502172 -77.9362 -7.55947 5.30277 2.52793 -18.7323 8.87782 -0.0 0.0 -0.0 6.58862 26.7759 -11.2462 5.27078 15.9608 -63.3958 3.07735 56.7238 -1.66156 -0.408479 0.0145713 -0.0501313 1.13971 9.59965 -3.61834 0.0 0.0 0.0 0.327414 23.5609 -1.90338 -24.5052 0.215022 3.72581 19.5893 -8.25742 -2.77929 -40.1793 0.0 0.0 -0.0 0.0 -0.0 -2.55183 6.75796 1.60667 4.23881 0.197618 0.620191 -12.0172 23.8447 -2.13121 26.8866 -0.0 -0.0 0.0 0.0 0.0 
3234.72 744.552 -609.249 157.67 -68.6689 154.098 -1.98111 0.415754 2.5155 -1.97763 0.254896 2.53684 -1.96256 -0.370741 2.52252 -1.97143 0.0321634 2.5494 -9.38653 4.89685 -0.4834 -9.40747 9.52605 0.700221 -0.0 0.0 -0.0 -0.435748 21.898 1.92691 -21.4184 -22.6275 65.7291 0.464174 -12.9496 0.0526796 -77.5134 -7.50562 5.30631 2.5282 -18.4749 9.00252 -0.0 0.0 -0.0 6.27396 25.3241 -10.7078 4.95563 16.922 -64.1383 3.18751 57.6407 -1.75414 -1.5075 0.055549 -0.184489 0.719668 7.64783 -1.61293 0.0 0.0 0.0 0.59511 25.4279 -3.06413 -9.23565 0.268681 1.39039 7.02153 0.160752 -1.01755 -40.1567 0.0 0.0 -0.0 0.0 -0.0 -2.06382 5.26681 -0.603519 3.08522 0.13929 0.45285 -11.7122 19.4897 -1.98572 30.0416 -0.0 -0.0 0.0 0.0 0.0 
3244.59 748.879 -613.018 159.183 -69.4411 155.734 -1.78895 0.412188 2.41711 -1.78574 0.257592 2.43842 -1.77143 -0.336025 2.42886 -1.77966 0.0516665 2.45144 -8.88125 4.98619 0.0517648 -8.89785 9.30706 1.20607 -0.0 0.0 -0.0 -0.305967 21.6344 2.07889 -21.8015 -22.031 66.6928 0.55146 -15.2793 0.0739692 -78.1985 -7.59287 5.30037 2.23798 -16.5104 7.97231 -0.0 0.0 -0.0 5.83178 24.7003 -9.80508 4.28998 17.8127 -64.506 3.04371 56.4346 -1.63348 -2.29015 0.0863006 -0.279686 0.562051 8.14295 -0.338016 0.0 0.0 0.0 -1.28552 23.9051 -2.102 -2.61145 0.09868 0.388588 4.8036 4.02155 -0.695978 -35.8419 0.0 0.0 -0.0 0.0 -0.0 -1.52655 6.70805 -1.16783 3.30242 0.150014 0.484444 -11.9182 16.4972 -1.96869 30.8357 -0.0 -0.0 0.0 0.0 0.0 
3253.57 748.908 -613.711 161.456 -69.2364 158.699 -1.61847 0.37092 2.13759 -1.61595 0.23418 2.15685 -1.60463 -0.284785 2.15076 -1.61108 0.0583782 2.16874 -8.80665 4.99851 -0.767169 -8.82168 9.89519 0.397467 -0.0 0.0 -0.0 -0.127991 20.7364 2.22891 -21.7409 -21.5133 67.4434 0.552746 -15.3132 0.0743085 -77.6932 -7.52852 5.30485 2.19614 -16.196 7.83548 -0.0 0.0 -0.0 5.86059 23.6843 -9.96677 3.77955 18.2465 -64.7157 2.96155 55.7092 -1.56531 -4.17801 0.165814 -0.507541 0.339268 7.50383 0.894156 0.0 0.0 0.0 -2.55749 22.9415 -1.47529 3.53242 -0.1615 -0.517858 0.0382166 7.97048 -0.00559231 -36.103 0.0 0.0 -0.0 0.0 -0.0 -1.14771 5.94191 -1.94589 3.71542 0.170735 0.544409 -12.4921 18.274 -2.09654 33.2248 -0.0 -0.0 0.0 0.0 0.0 
3261.41 749.472 -617.63 161.98 -68.0648 159.928 -1.45902 0.393496 1.92617 -1.45699 0.270155 1.9473 -1.44579 -0.194599 1.95629 -1.45111 0.116742 1.96247 -9.26625 5.0875 -1.19192 -9.28545 10.3666 0.0414608 -0.0 0.0 -0.0 -0.0388317 20.398 2.31981 -21.7742 -20.7857 68.2771 0.557832 -15.4474 0.0756575 -78.1558 -7.58744 5.30077 2.18419 -14.982 8.31228 -0.0 0.0 -0.0 5.61305 22.8253 -9.50926 2.1947 18.5871 -64.7257 2.99675 56.0233 -1.59444 -6.64461 0.280957 -0.801134 0.196351 7.01412 1.65077 0.0 0.0 0.0 -3.48415 22.9507 -1.52927 5.39833 -0.259639 -0.787202 -4.51028 16.0208 0.672121 -34.8287 0.0 0.0 -0.0 0.0 -0.0 -1.23221 4.56346 -2.47716 3.12535 0.141262 0.458689 -12.2033 15.3796 -1.99849 36.6982 -0.0 -0.0 0.0 0.0 0.0 
3272.0 749.236 -620.638 161.981 -66.5927 160.435 -1.42091 0.456826 1.61247 -1.41953 0.353309 1.63826 -1.4079 -0.0400441 1.67544 -1.41175 0.225025 1.66074 -9.40718 5.33214 -2.0837 -9.42403 11.4389 -0.760542 -0.0 0.0 -0.0 0.131621 19.8167 2.5052 -22.0725 -20.7109 68.3901 0.598522 -16.5147 0.0868608 -77.5197 -7.50641 5.30626 2.13817 -14.9727 8.00508 -0.0 0.0 -0.0 5.68815 22.6604 -9.68805 1.11563 18.8736 -64.7774 2.91066 55.2459 -1.52338 -8.71802 0.38747 -1.04396 0.093844 5.46682 1.68449 0.0 0.0 0.0 -4.70706 22.9867 -1.51932 5.03151 -0.239652 -0.734501 -4.4142 21.2849 0.668535 -33.7487 0.0 0.0 -0.0 0.0 -0.0 -2.33075 4.2169 -2.57135 2.75583 0.123256 0.40486 -10.2836 14.4534 -1.66806 39.2913 -0.0 -0.0 0.0 0.0 0.0 
3286.01 750.928 -624.753 162.807 -65.8435 161.22 -1.29978 0.436944 1.42179 -1.29872 0.345596 1.44671 -1.28882 0.000397285 1.48741 -1.29183 0.235275 1.46869 -10.4499 6.41958 0.0783442 -10.5028 12.0541 1.72853 -0.0 0.0 -0.0 -0.991952 19.6413 0.826327 -20.5294 -20.891 70.9442 0.68401 -18.7184 0.112738 -76.7984 -7.41445 5.31138 1.879 -14.4506 6.48958 -0.0 0.0 -0.0 5.60432 22.969 -9.47676 -1.10946 19.0121 -64.1668 2.85172 54.6954 -1.47511 -11.4736 0.542532 -1.36051 0.168127 4.42403 0.741189 0.0 0.0 0.0 -5.89777 21.252 -1.1317 3.7631 -0.173156 -0.551324 -0.308558 24.5391 0.0470353 -31.6901 0.0 0.0 -0.0 0.0 -0.0 -2.56622 2.56625 -1.98957 1.73046 0.0751173 0.254904 -8.67543 13.2537 -1.39164 40.1594 -0.0 -0.0 0.0 0.0 0.0 
3297.22 749.564 -623.672 162.072 -64.5012 161.219 -1.13304 0.489187 1.199 -1.13233 0.411906 1.22769 -1.12264 0.11949 1.28941 -1.12482 0.321613 1.25437 -11.3249 7.2742 -0.843373 -11.417 14.3132 1.16915 -0.0 0.0 -0.0 -1.02068 19.0383 0.699118 -18.8442 -21.0123 71.6471 0.59029 -16.2997 0.0845355 -77.3837 -7.48908 5.30732 1.94588 -13.8513 7.21119 -0.0 0.0 -0.0 5.58377 26.055 -9.12786 -3.78939 19.4635 -64.6181 2.76983 53.905 -1.40861 -13.4245 0.661454 -1.57998 -0.0950753 0.800571 0.973937 0.0 0.0 0.0 -6.59966 20.9512 -2.051 0.458694 -0.0191595 -0.067782 4.49656 24.8321 -0.678692 -29.8824 0.0 0.0 -0.0 0.0 -0.0 -4.04345 3.31704 -2.27805 1.49775 0.0645673 0.220755 -6.94153 14.399 -1.11942 40.1441 -0.0 -0.0 0.0 0.0 0.0 
